GSerif01Display-750Italic.ufo
<glyph name="T" format="1">
  <advance width="633"/>
  <unicode hex="0054"/>
  <outline>
    <contour>
      <point x="487" y="676" type="line" smooth="yes"/>
      <point x="573" y="676"/>
      <point x="603" y="662"/>
      <point x="604" y="620" type="curve" smooth="yes"/>
      <point x="607" y="529" type="line"/>
      <point x="636" y="529" type="line"/>
      <point x="668" y="710" type="line"/>
      <point x="101" y="710" type="line"/>
      <point x="69" y="529" type="line"/>
      <point x="98" y="529" type="line"/>
      <point x="132" y="620" type="line" smooth="yes"/>
      <point x="148" y="662"/>
      <point x="183" y="676"/>
      <point x="269" y="676" type="curve" smooth="yes"/>
      <point x="332" y="676" type="line"/>
      <point x="225" y="67" type="line" smooth="yes"/>
      <point x="220" y="36"/>
      <point x="178" y="30"/>
      <point x="138" y="30" type="curve" smooth="yes"/>
      <point x="122" y="30" type="line"/>
      <point x="117" y="0" type="line"/>
      <point x="402" y="0" type="line"/>
      <point x="407" y="30" type="line"/>
      <point x="391" y="30" type="line" smooth="yes"/>
      <point x="349" y="30"/>
      <point x="313" y="36"/>
      <point x="318" y="67" type="curve" smooth="yes"/>
      <point x="425" y="676" type="line"/>
    </contour>
  </outline>
</glyph>
<glyph name="V" format="1">
  <advance width="647"/>
  <unicode hex="0056"/>
  <outline>
    <contour>
      <point x="708" y="710" type="line"/>
      <point x="504" y="710" type="line"/>
      <point x="499" y="680" type="line"/>
      <point x="527" y="680" type="line" smooth="yes"/>
      <point x="580" y="680"/>
      <point x="588" y="669"/>
      <point x="588" y="657" type="curve"/>
      <point x="266" y="0" type="line"/>
      <point x="304" y="0" type="line"/>
      <point x="610" y="620" type="line" smooth="yes"/>
      <point x="631" y="663"/>
      <point x="665" y="680"/>
      <point x="696" y="680" type="curve" smooth="yes"/>
      <point x="703" y="680" type="line"/>
    </contour>
    <contour>
      <point x="75" y="710" type="line"/>
      <point x="70" y="680" type="line"/>
      <point x="75" y="680" type="line" smooth="yes"/>
      <point x="103" y="680"/>
      <point x="127" y="675"/>
      <point x="131" y="648" type="curve" smooth="yes"/>
      <point x="226" y="0" type="line"/>
      <point x="282" y="0" type="line"/>
      <point x="301" y="47" type="line"/>
      <point x="215" y="669" type="line"/>
      <point x="215" y="676"/>
      <point x="258" y="680"/>
      <point x="292" y="680" type="curve" smooth="yes"/>
      <point x="308" y="680" type="line"/>
      <point x="313" y="710" type="line"/>
    </contour>
  </outline>
</glyph>
<glyph name="a" format="1">
  <advance width="595"/>
  <unicode hex="0061"/>
  <outline>
    <contour>
      <point x="218" y="-11" type="curve" smooth="yes"/>
      <point x="322" y="-11"/>
      <point x="373" y="85"/>
      <point x="439" y="217" type="curve"/>
      <point x="450" y="223"/>
      <point x="431" y="227"/>
      <point x="419" y="235" type="curve"/>
      <point x="366" y="125"/>
      <point x="317" y="28"/>
      <point x="232" y="28" type="curve" smooth="yes"/>
      <point x="172" y="28"/>
      <point x="135" y="84"/>
      <point x="135" y="193" type="curve" smooth="yes"/>
      <point x="135" y="344"/>
      <point x="193" y="511"/>
      <point x="321" y="511" type="curve" smooth="yes"/>
      <point x="390" y="511"/>
      <point x="442" y="474"/>
      <point x="486" y="399" type="curve"/>
      <point x="505" y="424" type="line"/>
      <point x="470" y="497"/>
      <point x="407" y="550"/>
      <point x="321" y="550" type="curve" smooth="yes"/>
      <point x="134" y="550"/>
      <point x="41" y="377"/>
      <point x="41" y="209" type="curve" smooth="yes"/>
      <point x="41" y="68"/>
      <point x="117" y="-11"/>
    </contour>
    <contour>
      <point x="466" y="-1" type="curve" smooth="yes"/>
      <point x="508" y="-1"/>
      <point x="542" y="18"/>
      <point x="562" y="35" type="curve"/>
      <point x="569" y="67" type="line"/>
      <point x="551" y="57"/>
      <point x="522" y="39"/>
      <point x="494" y="39" type="curve" smooth="yes"/>
      <point x="470" y="39"/>
      <point x="459" y="49"/>
      <point x="459" y="75" type="curve" smooth="yes"/>
      <point x="459" y="83"/>
      <point x="460" y="93"/>
      <point x="462" y="105" type="curve"/>
      <point x="540" y="545" type="line"/>
      <point x="475" y="545" type="line"/>
      <point x="443" y="487" type="line"/>
      <point x="440" y="480" type="line"/>
      <point x="378" y="128" type="line"/>
      <point x="384" y="125" type="line"/>
      <point x="379" y="112"/>
      <point x="375" y="97"/>
      <point x="375" y="86" type="curve" smooth="yes"/>
      <point x="375" y="27"/>
      <point x="411" y="-1"/>
    </contour>
  </outline>
</glyph>
<glyph name="g" format="1">
  <advance width="601"/>
  <unicode hex="0067"/>
  <outline>
    <contour>
      <point x="184" y="-250" type="curve" smooth="yes"/>
      <point x="221" y="-250" type="line" smooth="yes"/>
      <point x="385" y="-250"/>
      <point x="516" y="-184"/>
      <point x="516" y="-56" type="curve" smooth="yes"/>
      <point x="516" y="16"/>
      <point x="463" y="65"/>
      <point x="361" y="65" type="curve" smooth="yes"/>
      <point x="177" y="65" type="line" smooth="yes"/>
      <point x="129" y="65"/>
      <point x="102" y="88"/>
      <point x="102" y="118" type="curve" smooth="yes"/>
      <point x="102" y="154"/>
      <point x="131" y="185"/>
      <point x="186" y="205" type="curve"/>
      <point x="205" y="224"/>
      <point x="183" y="241"/>
      <point x="162" y="223" type="curve"/>
      <point x="75" y="192"/>
      <point x="36" y="145"/>
      <point x="36" y="91" type="curve" smooth="yes"/>
      <point x="36" y="53"/>
      <point x="53" y="14"/>
      <point x="93" y="-7" type="curve"/>
      <point x="79" y="-14"/>
      <point x="74" y="-12"/>
      <point x="74" y="-19" type="curve"/>
      <point x="346" y="-19" type="line" smooth="yes"/>
      <point x="417" y="-19"/>
      <point x="441" y="-47"/>
      <point x="441" y="-85" type="curve" smooth="yes"/>
      <point x="441" y="-162"/>
      <point x="358" y="-218"/>
      <point x="226" y="-218" type="curve" smooth="yes"/>
      <point x="191" y="-218" type="line" smooth="yes"/>
      <point x="79" y="-218"/>
      <point x="30" y="-166"/>
      <point x="30" y="-113" type="curve" smooth="yes"/>
      <point x="30" y="-73"/>
      <point x="47" y="-29"/>
      <point x="110" y="-6" type="curve"/>
      <point x="99" y="13" type="line"/>
      <point x="5" y="-19"/>
      <point x="-37" y="-49"/>
      <point x="-37" y="-110" type="curve" smooth="yes"/>
      <point x="-37" y="-193"/>
      <point x="59" y="-250"/>
    </contour>
    <contour>
      <point x="291" y="171" type="curve" smooth="yes"/>
      <point x="427" y="171"/>
      <point x="515" y="268"/>
      <point x="515" y="377" type="curve" smooth="yes"/>
      <point x="515" y="481"/>
      <point x="437" y="550"/>
      <point x="326" y="550" type="curve" smooth="yes"/>
      <point x="188" y="550"/>
      <point x="102" y="450"/>
      <point x="102" y="344" type="curve" smooth="yes"/>
      <point x="102" y="241"/>
      <point x="179" y="171"/>
    </contour>
    <contour>
      <point x="291" y="203" type="curve" smooth="yes"/>
      <point x="225" y="203"/>
      <point x="189" y="250"/>
      <point x="189" y="323" type="curve" smooth="yes"/>
      <point x="189" y="431"/>
      <point x="249" y="518"/>
      <point x="327" y="518" type="curve" smooth="yes"/>
      <point x="392" y="518"/>
      <point x="428" y="471"/>
      <point x="428" y="398" type="curve" smooth="yes"/>
      <point x="428" y="289"/>
      <point x="369" y="203"/>
    </contour>
    <contour>
      <point x="616" y="474" type="curve"/>
      <point x="629" y="548" type="line"/>
      <point x="621" y="549"/>
      <point x="612" y="550"/>
      <point x="604" y="550" type="curve" smooth="yes"/>
      <point x="546" y="550"/>
      <point x="500" y="522"/>
      <point x="458" y="467" type="curve"/>
      <point x="469" y="451" type="line"/>
      <point x="489" y="474"/>
      <point x="510" y="483"/>
      <point x="542" y="483" type="curve" smooth="yes"/>
      <point x="563" y="483"/>
      <point x="587" y="479"/>
    </contour>
  </outline>
</glyph>
<glyph name="h" format="1">
  <advance width="627"/>
  <unicode hex="0068"/>
  <outline>
    <contour>
      <point x="403" y="122" type="line" smooth="yes"/>
      <point x="401" y="107"/>
      <point x="398" y="91"/>
      <point x="398" y="78" type="curve" smooth="yes"/>
      <point x="398" y="20"/>
      <point x="436" y="-9"/>
      <point x="492" y="-9" type="curve" smooth="yes"/>
      <point x="533" y="-9"/>
      <point x="567" y="10"/>
      <point x="587" y="27" type="curve"/>
      <point x="594" y="59" type="line"/>
      <point x="576" y="49"/>
      <point x="548" y="32"/>
      <point x="519" y="32" type="curve" smooth="yes"/>
      <point x="495" y="32"/>
      <point x="484" y="41"/>
      <point x="484" y="66" type="curve" smooth="yes"/>
      <point x="484" y="76"/>
      <point x="485" y="86"/>
      <point x="488" y="98" type="curve" smooth="yes"/>
      <point x="540" y="374" type="line" smooth="yes"/>
      <point x="543" y="391"/>
      <point x="545" y="409"/>
      <point x="545" y="428" type="curve" smooth="yes"/>
      <point x="545" y="499"/>
      <point x="500" y="550"/>
      <point x="411" y="550" type="curve" smooth="yes"/>
      <point x="314" y="550"/>
      <point x="259" y="481"/>
      <point x="192" y="343" type="curve"/>
      <point x="189" y="337"/>
      <point x="194" y="325"/>
      <point x="202" y="322" type="curve"/>
      <point x="264" y="452"/>
      <point x="317" y="510"/>
      <point x="390" y="510" type="curve" smooth="yes"/>
      <point x="441" y="510"/>
      <point x="457" y="481"/>
      <point x="457" y="444" type="curve" smooth="yes"/>
      <point x="457" y="425"/>
      <point x="454" y="400"/>
      <point x="450" y="379" type="curve" smooth="yes"/>
    </contour>
    <contour>
      <point x="67" y="0" type="line"/>
      <point x="156" y="0" type="line"/>
      <point x="289" y="750" type="line"/>
      <point x="115" y="750" type="line"/>
      <point x="110" y="720" type="line"/>
      <point x="121" y="718" type="line" smooth="yes"/>
      <point x="169" y="709"/>
      <point x="191" y="702"/>
      <point x="186" y="673" type="curve" smooth="yes"/>
    </contour>
  </outline>
</glyph>
<glyph name="r" format="1">
  <advance width="402"/>
  <unicode hex="0072"/>
  <outline>
    <contour>
      <point x="78" y="540" type="line"/>
      <point x="73" y="510" type="line"/>
      <point x="84" y="508" type="line" smooth="yes"/>
      <point x="132" y="499"/>
      <point x="154" y="492"/>
      <point x="149" y="463" type="curve" smooth="yes"/>
      <point x="67" y="0" type="line"/>
      <point x="156" y="0" type="line"/>
      <point x="226" y="399" type="line"/>
      <point x="217" y="384" type="line"/>
      <point x="244" y="540" type="line"/>
    </contour>
    <contour>
      <point x="427" y="543" type="line"/>
      <point x="418" y="547"/>
      <point x="406" y="550"/>
      <point x="386" y="550" type="curve" smooth="yes"/>
      <point x="320" y="550"/>
      <point x="250" y="487"/>
      <point x="204" y="358" type="curve"/>
      <point x="179" y="345"/>
      <point x="193" y="330"/>
      <point x="207" y="326" type="curve"/>
      <point x="249" y="436"/>
      <point x="298" y="477"/>
      <point x="350" y="477" type="curve" smooth="yes"/>
      <point x="370" y="477"/>
      <point x="385" y="473"/>
      <point x="413" y="463" type="curve"/>
    </contour>
  </outline>
</glyph>
<glyph name="t" format="1">
  <advance width="385"/>
  <unicode hex="0074"/>
  <outline>
    <contour>
      <point x="70" y="506" type="line"/>
      <point x="75" y="535" type="line"/>
      <point x="78" y="535" type="line"/>
      <point x="128" y="535"/>
      <point x="187" y="549"/>
      <point x="201" y="630" type="curve"/>
      <point x="213" y="540" type="line"/>
      <point x="382" y="540" type="line"/>
      <point x="376" y="506" type="line"/>
    </contour>
    <contour>
      <point x="177" y="154" type="line" smooth="yes"/>
      <point x="172" y="127"/>
      <point x="170" y="110"/>
      <point x="170" y="90" type="curve" smooth="yes"/>
      <point x="170" y="44"/>
      <point x="192" y="26"/>
      <point x="230" y="26" type="curve" smooth="yes"/>
      <point x="268" y="26"/>
      <point x="297" y="44"/>
      <point x="318" y="55" type="curve"/>
      <point x="310" y="17" type="line"/>
      <point x="294" y="6"/>
      <point x="260" y="-11"/>
      <point x="218" y="-11" type="curve" smooth="yes"/>
      <point x="146" y="-11"/>
      <point x="84" y="19"/>
      <point x="84" y="104" type="curve" smooth="yes"/>
      <point x="84" y="124"/>
      <point x="86" y="142"/>
      <point x="90" y="163" type="curve" smooth="yes"/>
      <point x="157" y="542" type="line"/>
      <point x="186" y="545" type="line"/>
      <point x="208" y="669" type="line"/>
      <point x="268" y="669" type="line"/>
    </contour>
  </outline>
</glyph>
<glyph name="v" format="1">
  <advance width="564"/>
  <unicode hex="0076"/>
  <outline>
    <contour>
      <point x="141" y="463" type="line" smooth="yes"/>
      <point x="145" y="492"/>
      <point x="123" y="499"/>
      <point x="76" y="508" type="curve" smooth="yes"/>
      <point x="65" y="510" type="line"/>
      <point x="70" y="540" type="line"/>
      <point x="243" y="540" type="line"/>
      <point x="191" y="192" type="line" smooth="yes"/>
      <point x="185" y="154"/>
      <point x="182" y="126"/>
      <point x="182" y="103" type="curve" smooth="yes"/>
      <point x="182" y="55"/>
      <point x="195" y="30"/>
      <point x="233" y="30" type="curve" smooth="yes"/>
      <point x="351" y="30"/>
      <point x="511" y="262"/>
      <point x="442" y="540" type="curve"/>
      <point x="533" y="540" type="line"/>
      <point x="539" y="190"/>
      <point x="347" y="-12"/>
      <point x="222" y="-12" type="curve" smooth="yes"/>
      <point x="137" y="-12"/>
      <point x="95" y="33"/>
      <point x="95" y="111" type="curve" smooth="yes"/>
      <point x="95" y="133"/>
      <point x="98" y="160"/>
      <point x="104" y="200" type="curve"/>
    </contour>
  </outline>
</glyph>
<glyph name="w" format="1">
  <advance width="834"/>
  <unicode hex="0077"/>
  <outline>
    <contour>
      <point x="222" y="0" type="line"/>
      <point x="242" y="36" type="line"/>
      <point x="189" y="540" type="line"/>
      <point x="100" y="540" type="line"/>
      <point x="166" y="0" type="line"/>
    </contour>
    <contour>
      <point x="283" y="540" type="line"/>
      <point x="65" y="540" type="line"/>
      <point x="60" y="510" type="line"/>
      <point x="61" y="510" type="line"/>
      <point x="83" y="510"/>
      <point x="105" y="503"/>
      <point x="108" y="473" type="curve"/>
      <point x="193" y="500" type="line"/>
      <point x="194" y="507"/>
      <point x="243" y="510"/>
      <point x="276" y="510" type="curve" smooth="yes"/>
      <point x="278" y="510" type="line"/>
    </contour>
    <contour>
      <point x="587" y="0" type="line"/>
      <point x="834" y="540" type="line"/>
      <point x="793" y="540" type="line"/>
      <point x="562" y="30" type="line"/>
      <point x="568" y="0" type="line"/>
    </contour>
    <contour>
      <point x="699" y="540" type="line"/>
      <point x="694" y="510" type="line"/>
      <point x="696" y="510" type="line" smooth="yes"/>
      <point x="729" y="510"/>
      <point x="773" y="502"/>
      <point x="770" y="489" type="curve"/>
      <point x="798" y="462" type="line"/>
      <point x="815" y="497"/>
      <point x="839" y="510"/>
      <point x="863" y="510" type="curve"/>
      <point x="864" y="510" type="line"/>
      <point x="869" y="540" type="line"/>
    </contour>
    <contour>
      <point x="461" y="540" type="line"/>
      <point x="211" y="30" type="line"/>
      <point x="213" y="0" type="line"/>
      <point x="236" y="0" type="line"/>
      <point x="472" y="483" type="line"/>
      <point x="446" y="493" type="line"/>
      <point x="517" y="0" type="line"/>
      <point x="577" y="0" type="line"/>
      <point x="593" y="36" type="line"/>
      <point x="522" y="540" type="line"/>
    </contour>
  </outline>
</glyph>
<glyph name="emdash" format="1">
  <advance width="953"/>
  <unicode hex="2014"/>
  <outline>
    <contour>
      <point x="96" y="337" type="line"/>
      <point x="89" y="293" type="line"/>
      <point x="878" y="293" type="line"/>
      <point x="885" y="337" type="line"/>
    </contour>
  </outline>
</glyph>
<glyph name="C.srf" format="1">
  <advance width="728"/>
  <outline>
    <contour>
      <point x="471" y="686" type="curve" smooth="yes"/>
      <point x="589" y="686"/>
      <point x="666" y="611"/>
      <point x="687" y="496" type="curve"/>
      <point x="719" y="496" type="line"/>
      <point x="757" y="710" type="line"/>
      <point x="718" y="710" type="line"/>
      <point x="681" y="572" type="line"/>
      <point x="703" y="558" type="line"/>
      <point x="690" y="651"/>
      <point x="587" y="720"/>
      <point x="477" y="720" type="curve" smooth="yes"/>
      <point x="278" y="720"/>
      <point x="100" y="568"/>
      <point x="63" y="355" type="curve" smooth="yes"/>
      <point x="24" y="138"/>
      <point x="146" y="-10"/>
      <point x="346" y="-10" type="curve" smooth="yes"/>
      <point x="497" y="-10"/>
      <point x="624" y="87"/>
      <point x="683" y="227" type="curve"/>
      <point x="653" y="240" type="line"/>
      <point x="598" y="111"/>
      <point x="490" y="26"/>
      <point x="357" y="26" type="curve" smooth="yes"/>
      <point x="203" y="26"/>
      <point x="127" y="154"/>
      <point x="163" y="355" type="curve" smooth="yes"/>
      <point x="198" y="555"/>
      <point x="322" y="686"/>
    </contour>
  </outline>
</glyph>
<glyph name="Q.alt" format="1">
  <advance width="789"/>
  <outline>
    <contour>
      <point x="410" y="203" type="line"/>
      <point x="460" y="94"/>
      <point x="506" y="-31"/>
      <point x="747" y="-50" type="curve"/>
      <point x="761" y="29" type="line"/>
      <point x="528" y="40"/>
      <point x="489" y="110"/>
      <point x="440" y="220" type="curve"/>
    </contour>
    <contour>
      <point x="347" y="-10" type="curve" smooth="yes"/>
      <point x="541" y="-10"/>
      <point x="724" y="139"/>
      <point x="762" y="355" type="curve" smooth="yes"/>
      <point x="800" y="572"/>
      <point x="670" y="720"/>
      <point x="476" y="720" type="curve" smooth="yes"/>
      <point x="282" y="720"/>
      <point x="101" y="572"/>
      <point x="63" y="355" type="curve" smooth="yes"/>
      <point x="25" y="139"/>
      <point x="153" y="-10"/>
    </contour>
    <contour>
      <point x="353" y="24" type="curve" smooth="yes"/>
      <point x="209" y="24"/>
      <point x="127" y="152"/>
      <point x="163" y="355" type="curve" smooth="yes"/>
      <point x="198" y="558"/>
      <point x="326" y="686"/>
      <point x="470" y="686" type="curve" smooth="yes"/>
      <point x="616" y="686"/>
      <point x="697" y="558"/>
      <point x="662" y="355" type="curve" smooth="yes"/>
      <point x="622" y="132"/>
      <point x="499" y="24"/>
    </contour>
  </outline>
</glyph>
<glyph name="f.hardalt" format="1">
  <advance width="383"/>
  <outline>
    <contour>
      <point x="68" y="540" type="line"/>
      <point x="62" y="506" type="line"/>
      <point x="409" y="506" type="line"/>
      <point x="415" y="540" type="line"/>
    </contour>
    <contour>
      <point x="431" y="630" type="line"/>
      <point x="512" y="630" type="line"/>
      <point x="524" y="697" type="line"/>
      <point x="506" y="731"/>
      <point x="450" y="758"/>
      <point x="390" y="758" type="curve" smooth="yes"/>
      <point x="285" y="758"/>
      <point x="201" y="698"/>
      <point x="182" y="590" type="curve" smooth="yes"/>
      <point x="77" y="0" type="line"/>
      <point x="164" y="0" type="line"/>
      <point x="267" y="583" type="line" smooth="yes"/>
      <point x="285" y="682"/>
      <point x="322" y="724"/>
      <point x="387" y="724" type="curve" smooth="yes"/>
      <point x="429" y="724"/>
      <point x="456" y="706"/>
      <point x="470" y="666" type="curve"/>
      <point x="490" y="682"/>
      <point x="475" y="719"/>
      <point x="447" y="719" type="curve"/>
    </contour>
  </outline>
</glyph>
<glyph name="f.soft" format="1">
  <advance width="383"/>
  <outline>
    <contour>
      <point x="68" y="540" type="line"/>
      <point x="62" y="506" type="line"/>
      <point x="409" y="506" type="line"/>
      <point x="415" y="540" type="line"/>
    </contour>
    <contour>
      <point x="389" y="758" type="curve" smooth="yes"/>
      <point x="285" y="758"/>
      <point x="201" y="698"/>
      <point x="181" y="583" type="curve" smooth="yes"/>
      <point x="37" y="-223" type="line"/>
      <point x="124" y="-223" type="line"/>
      <point x="267" y="583" type="line" smooth="yes"/>
      <point x="285" y="682"/>
      <point x="323" y="724"/>
      <point x="388" y="724" type="curve" smooth="yes"/>
      <point x="434" y="724"/>
      <point x="471" y="701"/>
      <point x="488" y="660" type="curve"/>
      <point x="491" y="688"/>
      <point x="473" y="708"/>
      <point x="453" y="718" type="curve"/>
      <point x="436" y="622" type="line"/>
      <point x="492" y="622" type="line" smooth="yes"/>
      <point x="511" y="622"/>
      <point x="523" y="648"/>
      <point x="523" y="675" type="curve" smooth="yes"/>
      <point x="523" y="721"/>
      <point x="469" y="758"/>
    </contour>
  </outline>
</glyph>
<glyph name="five.oldalt2" format="1">
  <advance width="610"/>
  <outline>
    <contour>
      <point x="147" y="528" type="line"/>
      <point x="559" y="528" type="line"/>
      <point x="529" y="358" type="line"/>
      <point x="493" y="358" type="line"/>
      <point x="510" y="456" type="line"/>
      <point x="510" y="456" type="line"/>
      <point x="159" y="456" type="line"/>
      <point x="175" y="477" type="line"/>
      <point x="130" y="224" type="line"/>
      <point x="93" y="224" type="line"/>
    </contour>
    <contour>
      <point x="254" y="239" type="line" smooth="yes"/>
      <point x="464" y="239"/>
      <point x="544" y="158"/>
      <point x="521" y="28" type="curve" smooth="yes"/>
      <point x="495" y="-120"/>
      <point x="364" y="-192"/>
      <point x="229" y="-192" type="curve" smooth="yes"/>
      <point x="86" y="-192"/>
      <point x="-5" y="-121"/>
      <point x="3" y="23" type="curve"/>
      <point x="99" y="23" type="line"/>
      <point x="95" y="-101"/>
      <point x="145" y="-153"/>
      <point x="236" y="-153" type="curve" smooth="yes"/>
      <point x="323" y="-153"/>
      <point x="403" y="-103"/>
      <point x="426" y="27" type="curve" smooth="yes"/>
      <point x="449" y="156"/>
      <point x="382" y="202"/>
      <point x="229" y="202" type="curve" smooth="yes"/>
      <point x="90" y="202" type="line"/>
      <point x="96" y="239" type="line"/>
    </contour>
  </outline>
</glyph>
<glyph name="g.alt" format="1">
  <advance width="598"/>
  <outline>
    <contour>
      <point x="135" y="198" type="curve" smooth="yes"/>
      <point x="135" y="338"/>
      <point x="196" y="511"/>
      <point x="328" y="511" type="curve" smooth="yes"/>
      <point x="402" y="511"/>
      <point x="461" y="474"/>
      <point x="505" y="399" type="curve"/>
      <point x="524" y="424" type="line"/>
      <point x="489" y="498"/>
      <point x="419" y="550"/>
      <point x="327" y="550" type="curve" smooth="yes"/>
      <point x="137" y="550"/>
      <point x="41" y="371"/>
      <point x="41" y="214" type="curve" smooth="yes"/>
      <point x="41" y="70"/>
      <point x="119" y="-11"/>
      <point x="234" y="-11" type="curve" smooth="yes"/>
      <point x="349" y="-11"/>
      <point x="394" y="74"/>
      <point x="463" y="205" type="curve"/>
      <point x="471" y="216"/>
      <point x="453" y="220"/>
      <point x="443" y="223" type="curve"/>
      <point x="387" y="114"/>
      <point x="344" y="28"/>
      <point x="248" y="28" type="curve" smooth="yes"/>
      <point x="174" y="28"/>
      <point x="135" y="86"/>
    </contour>
    <contour>
      <point x="201" y="-229" type="curve" smooth="yes"/>
      <point x="352" y="-229"/>
      <point x="451" y="-142"/>
      <point x="478" y="10" type="curve" smooth="yes"/>
      <point x="572" y="546" type="line"/>
      <point x="514" y="546" type="line"/>
      <point x="475" y="487" type="line"/>
      <point x="472" y="480" type="line"/>
      <point x="389" y="9" type="line" smooth="yes"/>
      <point x="365" y="-130"/>
      <point x="303" y="-192"/>
      <point x="204" y="-192" type="curve" smooth="yes"/>
      <point x="125" y="-192"/>
      <point x="68" y="-155"/>
      <point x="54" y="-104" type="curve"/>
      <point x="18" y="-128"/>
      <point x="60" y="-155"/>
      <point x="81" y="-179" type="curve"/>
      <point x="102" y="-62" type="line"/>
      <point x="36" y="-62" type="line" smooth="yes"/>
      <point x="13" y="-62"/>
      <point x="2" y="-94"/>
      <point x="2" y="-115" type="curve" smooth="yes"/>
      <point x="2" y="-181"/>
      <point x="107" y="-229"/>
    </contour>
  </outline>
</glyph>
<glyph name="g.althard" format="1">
  <advance width="598"/>
  <outline>
    <contour>
      <point x="135" y="198" type="curve" smooth="yes"/>
      <point x="135" y="338"/>
      <point x="196" y="511"/>
      <point x="328" y="511" type="curve" smooth="yes"/>
      <point x="402" y="511"/>
      <point x="461" y="474"/>
      <point x="505" y="399" type="curve"/>
      <point x="524" y="424" type="line"/>
      <point x="489" y="498"/>
      <point x="419" y="550"/>
      <point x="327" y="550" type="curve" smooth="yes"/>
      <point x="137" y="550"/>
      <point x="41" y="371"/>
      <point x="41" y="214" type="curve" smooth="yes"/>
      <point x="41" y="70"/>
      <point x="119" y="-11"/>
      <point x="234" y="-11" type="curve" smooth="yes"/>
      <point x="349" y="-11"/>
      <point x="394" y="74"/>
      <point x="463" y="205" type="curve"/>
      <point x="471" y="216"/>
      <point x="453" y="220"/>
      <point x="443" y="223" type="curve"/>
      <point x="387" y="114"/>
      <point x="344" y="28"/>
      <point x="248" y="28" type="curve" smooth="yes"/>
      <point x="174" y="28"/>
      <point x="135" y="86"/>
    </contour>
    <contour>
      <point x="199" y="-229" type="curve" smooth="yes"/>
      <point x="351" y="-229"/>
      <point x="451" y="-142"/>
      <point x="478" y="10" type="curve" smooth="yes"/>
      <point x="572" y="546" type="line"/>
      <point x="514" y="546" type="line"/>
      <point x="475" y="487" type="line"/>
      <point x="472" y="480" type="line"/>
      <point x="389" y="9" type="line" smooth="yes"/>
      <point x="365" y="-130"/>
      <point x="302" y="-192"/>
      <point x="202" y="-192" type="curve" smooth="yes"/>
      <point x="123" y="-192"/>
      <point x="70" y="-153"/>
      <point x="59" y="-102" type="curve"/>
      <point x="44" y="-144"/>
      <point x="54" y="-171"/>
      <point x="82" y="-173" type="curve"/>
      <point x="102" y="-65" type="line"/>
      <point x="11" y="-65" type="line"/>
      <point x="-3" y="-141" type="line"/>
      <point x="21" y="-185"/>
      <point x="105" y="-229"/>
    </contour>
  </outline>
</glyph>
<glyph name="k.alt" format="1">
  <advance width="635"/>
  <outline>
    <contour>
      <point x="326" y="327" type="line"/>
      <point x="312" y="295" type="line"/>
      <point x="582" y="508" type="line"/>
      <point x="578" y="528" type="line"/>
      <point x="550" y="528" type="line"/>
      <point x="247" y="289" type="line"/>
      <point x="246" y="284" type="line"/>
      <point x="453" y="0" type="line"/>
      <point x="529" y="0" type="line"/>
      <point x="548" y="27" type="line"/>
    </contour>
    <contour>
      <point x="-2" y="0" type="line"/>
      <point x="243" y="0" type="line"/>
      <point x="248" y="30" type="line"/>
      <point x="247" y="30" type="line"/>
      <point x="210" y="30"/>
      <point x="177" y="37"/>
      <point x="182" y="66" type="curve"/>
      <point x="93" y="66" type="line"/>
      <point x="88" y="37"/>
      <point x="51" y="30"/>
      <point x="4" y="30" type="curve"/>
      <point x="3" y="30" type="line"/>
    </contour>
    <contour>
      <point x="585" y="0" type="line"/>
      <point x="590" y="30" type="line"/>
      <point x="589" y="30" type="line"/>
      <point x="561" y="30"/>
      <point x="537" y="41"/>
      <point x="517" y="68" type="curve"/>
      <point x="422" y="42" type="line"/>
      <point x="421" y="35"/>
      <point x="380" y="30"/>
      <point x="362" y="30" type="curve"/>
      <point x="362" y="30" type="line"/>
      <point x="357" y="0" type="line"/>
    </contour>
    <contour>
      <point x="643" y="540" type="line"/>
      <point x="443" y="540" type="line"/>
      <point x="438" y="510" type="line"/>
      <point x="438" y="510" type="line"/>
      <point x="474" y="510"/>
      <point x="501" y="502"/>
      <point x="498" y="487" type="curve"/>
      <point x="517" y="457" type="line"/>
      <point x="562" y="492"/>
      <point x="595" y="510"/>
      <point x="637" y="510" type="curve"/>
      <point x="638" y="510" type="line"/>
    </contour>
    <contour>
      <point x="81" y="0" type="line"/>
      <point x="170" y="0" type="line"/>
      <point x="302" y="750" type="line"/>
      <point x="129" y="750" type="line"/>
      <point x="124" y="720" type="line"/>
      <point x="135" y="718" type="line" smooth="yes"/>
      <point x="183" y="709"/>
      <point x="205" y="702"/>
      <point x="200" y="673" type="curve" smooth="yes"/>
    </contour>
    <contour>
      <point x="286" y="268" type="line"/>
      <point x="293" y="307" type="line"/>
      <point x="171" y="307" type="line"/>
      <point x="164" y="268" type="line"/>
    </contour>
  </outline>
</glyph>
<glyph name="v.copy_1" format="1">
  <advance width="536"/>
  <outline>
    <contour>
      <point x="526" y="540" type="line"/>
      <point x="511" y="371"/>
      <point x="387" y="151"/>
      <point x="242" y="0" type="curve"/>
      <point x="183" y="0" type="line"/>
      <point x="179" y="9"/>
      <point x="202" y="11"/>
      <point x="222" y="26" type="curve"/>
      <point x="365" y="177"/>
      <point x="445" y="370"/>
      <point x="437" y="540" type="curve"/>
    </contour>
    <contour>
      <point x="113" y="444" type="line" smooth="yes"/>
      <point x="108" y="490"/>
      <point x="87" y="499"/>
      <point x="38" y="508" type="curve" smooth="yes"/>
      <point x="27" y="510" type="line"/>
      <point x="32" y="540" type="line"/>
      <point x="191" y="540" type="line"/>
      <point x="235" y="29" type="line"/>
      <point x="217" y="0" type="line"/>
      <point x="159" y="0" type="line"/>
    </contour>
  </outline>
</glyph>
<glyph name="v.soft" format="1">
  <advance width="522"/>
  <outline>
    <contour>
      <point x="212" y="0" type="line"/>
      <point x="207" y="8"/>
      <point x="222" y="14"/>
      <point x="221" y="26" type="curve"/>
      <point x="385" y="261"/>
      <point x="466" y="403"/>
      <point x="458" y="490" type="curve"/>
      <point x="466" y="517"/>
      <point x="468" y="493"/>
      <point x="488" y="475" type="curve"/>
      <point x="364" y="475" type="line"/>
      <point x="364" y="510" type="line" smooth="yes"/>
      <point x="364" y="531"/>
      <point x="394" y="550"/>
      <point x="438" y="550" type="curve" smooth="yes"/>
      <point x="489" y="550"/>
      <point x="512" y="530"/>
      <point x="512" y="483" type="curve"/>
      <point x="512" y="382"/>
      <point x="415" y="246"/>
      <point x="239" y="0" type="curve"/>
    </contour>
    <contour>
      <point x="164" y="0" type="line"/>
      <point x="113" y="444" type="line" smooth="yes"/>
      <point x="108" y="490"/>
      <point x="87" y="499"/>
      <point x="38" y="508" type="curve" smooth="yes"/>
      <point x="27" y="510" type="line"/>
      <point x="32" y="540" type="line"/>
      <point x="191" y="540" type="line"/>
      <point x="236" y="36" type="line"/>
      <point x="222" y="0" type="line"/>
    </contour>
  </outline>
</glyph>
